HIERARCHY
ROOT hip
{
  OFFSET 0 0 0
  CHANNELS 6 Xposition Yposition Zposition Zrotation Yrotation Xrotation
  JOINT abdomen
  {
    OFFSET 0 20.6881 -0.73152
    CHANNELS 3 Zrotation Xrotation Yrotation
    JOINT chest
    {
      OFFSET 0 11.7043 -0.48768
      CHANNELS 3 Zrotation Xrotation Yrotation
      JOINT neck
      {
        OFFSET 0 22.1894 -2.19456
        CHANNELS 3 Zrotation Xrotation Yrotation
        JOINT head
        {
          OFFSET -0.24384 7.07133 1.2192
          CHANNELS 3 Zrotation Xrotation Yrotation
          JOINT leftEye
          {
            OFFSET 4.14528 8.04674 8.04672
            CHANNELS 3 Zrotation Xrotation Yrotation
            End Site
            {
              OFFSET 1 0 0
            }
          }
          JOINT rightEye
          {
            OFFSET -3.6576 8.04674 8.04672
            CHANNELS 3 Zrotation Xrotation Yrotation
            End Site
            {
              OFFSET 1 0 0
            }
          }
        }
      }
      JOINT rCollar
      {
        OFFSET -2.68224 19.2634 -4.8768
        CHANNELS 3 Zrotation Xrotation Yrotation
        JOINT rShldr
        {
          OFFSET -8.77824 -1.95073 1.46304
          CHANNELS 3 Zrotation Xrotation Yrotation
          JOINT rForeArm
          {
            OFFSET -28.1742 -1.7115 0.48768
            CHANNELS 3 Zrotation Xrotation Yrotation
            JOINT rHand
            {
              OFFSET -22.5879 0.773209 7.07136
              CHANNELS 3 Zrotation Xrotation Yrotation
              JOINT rThumb1
              {
                OFFSET -1.2192 -0.487915 3.41376
                CHANNELS 3 Zrotation Xrotation Yrotation
                JOINT rThumb2
                {
                  OFFSET -3.37035 -0.52449 3.41376
                  CHANNELS 3 Zrotation Xrotation Yrotation
                  End Site
                  {
                    OFFSET -1.78271 -1.18214 1.43049
                  }
                }
              }
              JOINT rIndex1
              {
                OFFSET -7.75947 0.938293 5.60832
                CHANNELS 3 Zrotation Xrotation Yrotation
                JOINT rIndex2
                {
                  OFFSET -2.54057 -0.884171 1.56538
                  CHANNELS 3 Zrotation Xrotation Yrotation
                  End Site
                  {
                    OFFSET -1.62519 -0.234802 1.16502
                  }
                }
              }
              JOINT rMid1
              {
                OFFSET -8.24714 1.18213 3.41376
                CHANNELS 3 Zrotation Xrotation Yrotation
                JOINT rMid2
                {
                  OFFSET -3.10165 -0.590103 1.0647
                  CHANNELS 3 Zrotation Xrotation Yrotation
                  End Site
                  {
                    OFFSET -2.48547 -0.328903 0.83742
                  }
                }
              }
              JOINT rRing1
              {
                OFFSET -8.82822 0.546677 1.51678
                CHANNELS 3 Zrotation Xrotation Yrotation
                JOINT rRing2
                {
                  OFFSET -2.60934 -0.819778 -0.0198488
                  CHANNELS 3 Zrotation Xrotation Yrotation
                  End Site
                  {
                    OFFSET -2.33842 -0.294052 0.168128
                  }
                }
              }
              JOINT rPinky1
              {
                OFFSET -8.27202 -0.0477905 -0.4584
                CHANNELS 3 Zrotation Xrotation Yrotation
                JOINT rPinky2
                {
                  OFFSET -1.82734 -0.647385 -0.700984
                  CHANNELS 3 Zrotation Xrotation Yrotation
                  End Site
                  {
                    OFFSET -1.69225 -0.51767 -0.607171
                  }
                }
              }
            }
          }
        }
      }
      JOINT lCollar
      {
        OFFSET 2.68224 19.2634 -4.8768
        CHANNELS 3 Zrotation Xrotation Yrotation
        JOINT lShldr
        {
          OFFSET 8.77824 -1.95073 1.46304
          CHANNELS 3 Zrotation Xrotation Yrotation
          JOINT lForeArm
          {
            OFFSET 28.1742 -1.7115 0.48768
            CHANNELS 3 Zrotation Xrotation Yrotation
            JOINT lHand
            {
              OFFSET 22.5879 0.773209 7.07136
              CHANNELS 3 Zrotation Xrotation Yrotation
              JOINT lThumb1
              {
                OFFSET 1.2192 -0.487915 3.41376
                CHANNELS 3 Zrotation Xrotation Yrotation
                JOINT lThumb2
                {
                  OFFSET 3.37035 -0.52449 3.41376
                  CHANNELS 3 Zrotation Xrotation Yrotation
                  End Site
                  {
                    OFFSET 1.78271 -1.18214 1.43049
                  }
                }
              }
              JOINT lIndex1
              {
                OFFSET 7.75947 0.938293 5.60832
                CHANNELS 3 Zrotation Xrotation Yrotation
                JOINT lIndex2
                {
                  OFFSET 2.54057 -0.884171 1.56538
                  CHANNELS 3 Zrotation Xrotation Yrotation
                  End Site
                  {
                    OFFSET 1.62519 -0.234802 1.16502
                  }
                }
              }
              JOINT lMid1
              {
                OFFSET 8.24714 1.18213 3.41376
                CHANNELS 3 Zrotation Xrotation Yrotation
                JOINT lMid2
                {
                  OFFSET 3.10165 -0.590103 1.0647
                  CHANNELS 3 Zrotation Xrotation Yrotation
                  End Site
                  {
                    OFFSET 2.48547 -0.328903 0.83742
                  }
                }
              }
              JOINT lRing1
              {
                OFFSET 8.82822 0.546677 1.51678
                CHANNELS 3 Zrotation Xrotation Yrotation
                JOINT lRing2
                {
                  OFFSET 2.60934 -0.819778 -0.0198488
                  CHANNELS 3 Zrotation Xrotation Yrotation
                  End Site
                  {
                    OFFSET 2.33842 -0.294052 0.168128
                  }
                }
              }
              JOINT lPinky1
              {
                OFFSET 8.27202 -0.0477905 -0.4584
                CHANNELS 3 Zrotation Xrotation Yrotation
                JOINT lPinky2
                {
                  OFFSET 1.82734 -0.647385 -0.700984
                  CHANNELS 3 Zrotation Xrotation Yrotation
                  End Site
                  {
                    OFFSET 1.69225 -0.51767 -0.607171
                  }
                }
              }
            }
          }
        }
      }
    }
  }
  JOINT rButtock
  {
    OFFSET -8.77824 4.35084 1.2192
    CHANNELS 3 Zrotation Xrotation Yrotation
    JOINT rThigh
    {
      OFFSET 0 -1.70687 -2.19456
      CHANNELS 3 Zrotation Xrotation Yrotation
      JOINT rShin
      {
        OFFSET 0 -36.8199 0.73152
        CHANNELS 3 Zrotation Xrotation Yrotation
        JOINT rFoot
        {
          OFFSET 0.73152 -45.1104 -5.12064
          CHANNELS 3 Zrotation Xrotation Yrotation
          End Site
          {
            OFFSET -1.1221 -3.69964 12.103
          }
        }
      }
    }
  }
  JOINT lButtock
  {
    OFFSET 8.77824 4.35084 1.2192
    CHANNELS 3 Zrotation Xrotation Yrotation
    JOINT lThigh
    {
      OFFSET 0 -1.70687 -2.19456
      CHANNELS 3 Zrotation Xrotation Yrotation
      JOINT lShin
      {
        OFFSET 0 -36.8199 0.73152
        CHANNELS 3 Zrotation Xrotation Yrotation
        JOINT lFoot
        {
          OFFSET -0.73152 -45.1104 -5.12064
          CHANNELS 3 Zrotation Xrotation Yrotation
          End Site
          {
            OFFSET 1.1221 -3.69964 12.103
          }
        }
      }
    }
  }
}
MOTION
Frames:	12
Frame Time:	0.00833333
52.67	77.88	-219.42	0	0	0	0.45	0	0.01	0.12	0	0.02	-5.35E-015	0	6.21E-017	-1.58E-014	3.18E-015	1.54E-016	0	0	0	0	0	0	-2.54E-015	8.54E-018	1.49E-016	-5.33E-014	1.80E-016	1.19E-015	-9.34E-013	2.87E-013	1.91E-014	-1.07E-011	-2.46E-013	7.95E-014	-2.53E-011	8.65E-014	2.26E-013	-4.37E-011	1.49E-013	3.92E-013	-2.53E-011	8.75E-014	2.23E-013	7.73	5.47	0.42	-2.53E-011	8.66E-014	2.26E-013	2.91	0.97	0.1	-2.53E-011	8.68E-014	2.26E-013	10.28	0.73	0.03	-2.53E-011	8.87E-014	2.32E-013	2.22	-0.73	-0.21	-2.63E-015	9.71E-018	-1.49E-016	-5.68E-014	4.04E-016	-3.98E-016	-9.40E-013	-2.69E-013	1.91E-014	-1.07E-011	3.29E-013	9.22E-014	-2.53E-011	1.24E-013	2.29E-013	-4.37E-011	2.07E-013	3.99E-013	-2.53E-011	1.26E-013	2.39E-013	-7.73	5.47	-0.42	-2.53E-011	1.24E-013	2.32E-013	-2.91	0.97	-0.1	-2.53E-011	1.24E-013	2.31E-013	-10.28	0.73	-0.03	-2.53E-011	1.26E-013	2.23E-013	-2.22	-0.73	0.21	-2.03E-016	0	-3.88E-019	0.83	-4.25	-0.07	0	2.15	-0.02	-0.49	2.1	0.1	2.03E-016	0	3.88E-019	-0.14	-2.5	0.03	0.01	-1.02	0.07	0.48	3.52	-0.13
50.82	76.93	-218.85	-5.61	-5.68	-0.22	3.29	4.15	0.61	-0.94	-1.12	0.25	0.01	1.07	0.41	-1.68	0	0.25	0	0	0	0	0	0	-2.11E-014	1.22E-014	1.35E-014	18.26	12.35	7.37	-10.03	-6.89	12.32	0.06	-5.61	-0.78	1.11E-010	-5.96E-010	2.86E-011	1.92E-010	-1.03E-009	5.21E-011	1.11E-010	-5.96E-010	2.86E-011	7.73	5.47	0.42	1.11E-010	-5.96E-010	2.86E-011	2.91	0.97	0.1	1.11E-010	-5.96E-010	2.86E-011	10.28	0.73	0.03	1.11E-010	-5.96E-010	2.86E-011	2.22	-0.73	-0.21	-2.11E-014	1.22E-014	1.31E-014	-22.78	-5.16	4.46	1.91	-0.65	-3.17	-0.01	-2.37	0.33	3.98E-010	-2.80E-010	3.76E-011	6.88E-010	-4.84E-010	6.72E-011	3.98E-010	-2.80E-010	3.76E-011	-7.73	5.47	-0.42	3.98E-010	-2.80E-010	3.76E-011	-2.91	0.97	-0.1	3.98E-010	-2.80E-010	3.76E-011	-10.28	0.73	-0.03	3.98E-010	-2.80E-010	3.76E-011	-2.22	-0.73	0.21	-2.03E-016	0	-3.88E-019	3.6	0.51	0.67	0.04	3.85	0.21	-0.63	-2.81	-1.8	2.03E-016	0	3.88E-019	2.48	-14.19	-0.1	-0.04	8.19	-0.13	0.77	1.02	3.22
50.79	76.88	-217.91	-6.02	-6.08	0.15	6.2	8.52	1.24	-2.07	-2.29	0.49	0.01	2.21	0.83	-3.34	0	0.53	0	0	0	0	0	0	-4.32E-014	2.66E-014	2.70E-014	33.85	24.7	16.32	-17.43	-13.09	25.87	-0.04	-11.54	-1.62	2.66E-010	-1.29E-009	6.53E-011	4.57E-010	-2.23E-009	1.18E-010	2.66E-010	-1.29E-009	6.53E-011	7.73	5.47	0.42	2.66E-010	-1.29E-009	6.53E-011	2.91	0.97	0.1	2.66E-010	-1.29E-009	6.53E-011	10.28	0.73	0.03	2.66E-010	-1.29E-009	6.53E-011	2.22	-0.73	-0.21	-4.32E-014	2.66E-014	2.67E-014	-45.96	-10.46	9.26	3.85	-1.33	-6.54	0.01	-4.92	0.69	8.86E-010	-5.96E-010	8.73E-011	1.53E-009	-1.03E-009	1.56E-010	8.86E-010	-5.96E-010	8.73E-011	-7.73	5.47	-0.42	8.86E-010	-5.96E-010	8.73E-011	-2.91	0.97	-0.1	8.86E-010	-5.96E-010	8.73E-011	-10.28	0.73	-0.03	8.86E-010	-5.96E-010	8.73E-011	-2.22	-0.73	0.21	-2.03E-016	0	-3.88E-019	6.4	5.46	1.42	0.07	5.69	0.46	-1.14	-8.03	-3.84	2.03E-016	0	3.88E-019	5.16	-26.56	-0.24	-0.01	17.95	-0.36	1.39	-1.59	6.73
50.77	76.84	-216.87	-6.45	-6.49	0.38	8.71	12.44	1.84	-3.06	-3.34	0.71	0	3.21	1.22	-4.71	0	0.86	0	0	0	0	0	0	-5.82E-014	3.65E-014	4.01E-014	43.85	34.33	26.48	-21.57	-16.81	38.62	-0.28	-16.82	-2.42	3.85E-010	-1.79E-009	8.54E-011	6.62E-010	-3.10E-009	1.55E-010	3.85E-010	-1.79E-009	8.54E-011	7.73	5.47	0.42	3.85E-010	-1.79E-009	8.54E-011	2.91	0.97	0.1	3.85E-010	-1.79E-009	8.54E-011	10.28	0.73	0.03	3.85E-010	-1.79E-009	8.54E-011	2.22	-0.73	-0.21	-5.82E-014	3.65E-014	3.97E-014	-65.87	-15.09	13.8	5.51	-1.93	-9.53	0.05	-7.12	1	1.25E-009	-8.41E-010	1.12E-010	2.15E-009	-1.45E-009	2.01E-010	1.25E-009	-8.41E-010	1.12E-010	-7.73	5.47	-0.42	1.25E-009	-8.41E-010	1.12E-010	-2.91	0.97	-0.1	1.25E-009	-8.41E-010	1.12E-010	-10.28	0.73	-0.03	1.25E-009	-8.41E-010	1.12E-010	-2.22	-0.73	0.21	-2.03E-016	0	-3.88E-019	8.78	10.02	2.17	0.08	7.27	0.68	-1.91	-12.59	-5.73	2.03E-016	0	3.88E-019	7.52	-37.57	-0.43	0.08	26.61	-0.59	2.22	-3.91	9.94
50.91	76.89	-215.69	-6.24	-6.86	0.35	10.42	15.22	2.32	-3.74	-4.07	0.88	-0.02	3.88	1.51	-5.58	0	1.18	0	0	0	0	0	0	-5.53E-014	3.50E-014	5.18E-014	48.14	39.7	35.42	-23.4	-18.02	47.77	-0.54	-20.48	-3.01	4.15E-010	-1.80E-009	6.42E-011	7.14E-010	-3.13E-009	1.19E-010	4.15E-010	-1.80E-009	6.42E-011	7.73	5.47	0.42	4.15E-010	-1.80E-009	6.42E-011	2.91	0.97	0.1	4.15E-010	-1.80E-009	6.42E-011	10.28	0.73	0.03	4.15E-010	-1.80E-009	6.42E-011	2.22	-0.73	-0.21	-5.53E-014	3.50E-014	5.15E-014	-79.28	-18.38	17.27	6.61	-2.32	-11.58	0.09	-8.47	1.2	1.28E-009	-9.09E-010	7.58E-011	2.22E-009	-1.57E-009	1.38E-010	1.28E-009	-9.09E-010	7.58E-011	-7.73	5.47	-0.42	1.28E-009	-9.09E-010	7.58E-011	-2.91	0.97	-0.1	1.28E-009	-9.09E-010	7.58E-011	-10.28	0.73	-0.03	1.28E-009	-9.09E-010	7.58E-011	-2.22	-0.73	0.21	-2.03E-016	0	-3.88E-019	10.31	13.58	2.87	0.08	8.18	0.83	-2.61	-15.6	-7.11	2.03E-016	0	3.88E-019	9.2	-45.15	-0.68	0.19	32.53	-0.78	3.02	-5.6	12.35
51.02	76.96	-214.43	-6.05	-7.43	0.17	11.12	16.48	2.6	-4.01	-4.36	0.98	-0.01	4.07	1.66	-5.94	0	1.39	0	0	0	0	0	0	-1.89E-014	1.35E-014	6.30E-014	48.92	41.27	39.71	-23.98	-18.17	51.43	-0.67	-21.88	-3.25	3.03E-010	-1.05E-009	-2.01E-011	5.23E-010	-1.83E-009	-2.87E-011	3.03E-010	-1.05E-009	-2.01E-011	7.73	5.47	0.42	3.03E-010	-1.05E-009	-2.01E-011	2.91	0.97	0.1	3.03E-010	-1.05E-009	-2.01E-011	10.28	0.73	0.03	3.03E-010	-1.05E-009	-2.00E-011	2.22	-0.73	-0.21	-1.89E-014	1.35E-014	6.27E-014	-84.35	-20.12	19.01	6.98	-2.45	-12.29	0.09	-8.54	1.21	7.67E-010	-6.69E-010	-6.11E-011	1.32E-009	-1.16E-009	-1.01E-010	7.67E-010	-6.69E-010	-6.11E-011	-7.73	5.47	-0.42	7.67E-010	-6.69E-010	-6.11E-011	-2.91	0.97	-0.1	7.67E-010	-6.69E-010	-6.11E-011	-10.28	0.73	-0.03	7.67E-010	-6.69E-010	-6.11E-011	-2.22	-0.73	0.21	-2.03E-016	0	-3.88E-019	10.78	15.82	3.5	0.08	8.1	0.88	-2.88	-16.51	-7.66	2.03E-016	0	3.88E-019	10.02	-47.92	-1.02	0.25	34.51	-0.87	3.5	-6.47	13.66
51.07	76.89	-213.18	-6.14	-7.95	0.01	11.13	16.64	2.72	-3.98	-4.34	1.03	0.02	3.92	1.71	-5.99	0	1.47	0	0	0	0	0	0	4.10E-014	-2.21E-014	7.37E-014	48.31	40.88	39.91	-23.96	-18.24	51.18	-0.65	-21.66	-3.21	8.92E-011	2.53E-010	-1.49E-010	1.58E-010	4.18E-010	-2.56E-010	8.92E-011	2.53E-010	-1.49E-010	7.73	5.47	0.42	8.92E-011	2.53E-010	-1.49E-010	2.91	0.97	0.1	8.92E-011	2.53E-010	-1.49E-010	10.28	0.73	0.03	8.92E-011	2.53E-010	-1.49E-010	2.22	-0.73	-0.21	4.09E-014	-2.21E-014	7.34E-014	-83.68	-20.84	19.42	6.85	-2.4	-12.05	0.08	-7.7	1.09	-1.40E-010	-2.11E-010	-2.69E-010	-2.41E-010	-3.66E-010	-4.64E-010	-1.40E-010	-2.11E-010	-2.69E-010	-7.73	5.47	-0.42	-1.40E-010	-2.11E-010	-2.69E-010	-2.91	0.97	-0.1	-1.40E-010	-2.11E-010	-2.69E-010	-10.28	0.73	-0.03	-1.40E-010	-2.11E-010	-2.69E-010	-2.22	-0.73	0.21	-2.03E-016	0	-3.88E-019	10.52	17.11	4.06	0.08	7.32	0.86	-2.76	-15.93	-7.6	2.03E-016	0	3.88E-019	10.28	-47.27	-1.37	0.23	33.68	-0.87	3.7	-6.78	14.17
51.1	76.78	-211.89	-6.33	-8.41	-0.14	10.82	16.29	2.8	-3.82	-4.18	1.06	0.03	3.63	1.72	-5.83	0	1.52	0	0	0	0	0	0	9.68E-014	-5.69E-014	8.22E-014	47.28	39.78	38.34	-23.72	-18.29	49.35	-0.57	-20.8	-3.06	-1.35E-010	1.62E-009	-2.88E-010	-2.27E-010	2.78E-009	-5.00E-010	-1.35E-010	1.62E-009	-2.88E-010	7.73	5.47	0.42	-1.35E-010	1.62E-009	-2.88E-010	2.91	0.97	0.1	-1.35E-010	1.62E-009	-2.88E-010	10.28	0.73	0.03	-1.35E-010	1.62E-009	-2.88E-010	2.22	-0.73	-0.21	9.67E-014	-5.69E-014	8.19E-014	-80.78	-21.03	19.26	6.54	-2.27	-11.46	0.05	-6.63	0.94	-1.04E-009	2.38E-010	-4.83E-010	-1.79E-009	4.08E-010	-8.37E-010	-1.04E-009	2.38E-010	-4.83E-010	-7.73	5.47	-0.42	-1.04E-009	2.38E-010	-4.83E-010	-2.91	0.97	-0.1	-1.04E-009	2.38E-010	-4.83E-010	-10.28	0.73	-0.03	-1.04E-009	2.38E-010	-4.83E-010	-2.22	-0.73	0.21	-2.03E-016	0	-3.88E-019	9.95	17.93	4.57	0.09	6.36	0.81	-2.49	-14.7	-7.29	2.03E-016	0	3.88E-019	10.33	-45.26	-1.6	0.19	31.89	-0.84	3.74	-6.82	14.29
51.1	76.69	-210.61	-6.63	-8.94	-0.13	10.55	16.01	2.94	-3.71	-4.07	1.1	0.01	3.39	1.74	-5.56	0	1.65	0	0	0	0	0	0	1.21E-013	-7.63E-014	8.68E-014	46.68	39.09	37.37	-23.57	-18.31	48.27	-0.53	-20.29	-2.98	-2.81E-010	2.56E-009	-4.02E-010	-4.76E-010	4.41E-009	-7.00E-010	-2.81E-010	2.56E-009	-4.02E-010	7.73	5.47	0.42	-2.81E-010	2.56E-009	-4.02E-010	2.91	0.97	0.1	-2.81E-010	2.56E-009	-4.02E-010	10.28	0.73	0.03	-2.81E-010	2.56E-009	-4.02E-010	2.22	-0.73	-0.21	1.21E-013	-7.63E-014	8.66E-014	-79.06	-21.13	19.32	6.36	-2.21	-11.13	0.04	-5.98	0.84	-1.53E-009	4.51E-010	-6.37E-010	-2.63E-009	7.75E-010	-1.11E-009	-1.53E-009	4.51E-010	-6.37E-010	-7.73	5.47	-0.42	-1.53E-009	4.51E-010	-6.37E-010	-2.91	0.97	-0.1	-1.53E-009	4.51E-010	-6.37E-010	-10.28	0.73	-0.03	-1.53E-009	4.51E-010	-6.37E-010	-2.22	-0.73	0.21	-2.03E-016	0	-3.88E-019	9.44	18.76	5.07	0.09	5.74	0.78	-2.3	-13.64	-7.12	2.03E-016	0	3.88E-019	10.43	-43.98	-1.64	0.17	31	-0.83	3.81	-6.91	14.43
51.17	76.63	-209.3	-6.57	-9.43	-0.02	10.37	15.88	3.19	-3.68	-4.04	1.17	-0.05	3.23	1.78	-5.18	0	1.89	0	0	0	0	0	0	9.49E-014	-7.44E-014	8.73E-014	46.8	39.03	37.26	-23.59	-18.35	48.34	-0.53	-20.29	-2.98	-3.21E-010	3.03E-009	-5.20E-010	-5.43E-010	5.21E-009	-9.06E-010	-3.21E-010	3.03E-009	-5.20E-010	7.73	5.47	0.42	-3.21E-010	3.03E-009	-5.20E-010	2.91	0.97	0.1	-3.21E-010	3.03E-009	-5.20E-010	10.28	0.73	0.03	-3.21E-010	3.03E-009	-5.20E-010	2.22	-0.73	-0.21	9.47E-014	-7.44E-014	8.71E-014	-79.13	-21.07	19.74	6.4	-2.23	-11.2	0.05	-6.06	0.85	-1.41E-009	2.72E-010	-7.55E-010	-2.43E-009	4.67E-010	-1.31E-009	-1.41E-009	2.72E-010	-7.55E-010	-7.73	5.47	-0.42	-1.41E-009	2.72E-010	-7.55E-010	-2.91	0.97	-0.1	-1.41E-009	2.72E-010	-7.55E-010	-10.28	0.73	-0.03	-1.41E-009	2.72E-010	-7.55E-010	-2.22	-0.73	0.21	-2.03E-016	0	-3.88E-019	9.04	19.68	5.57	0.09	5.51	0.79	-2.22	-12.9	-7.19	2.03E-016	0	3.88E-019	10.6	-43.76	-1.5	0.17	31.42	-0.85	3.93	-7.2	14.56
51.3	76.57	-207.91	-6.2	-9.95	-0.09	10.11	15.62	3.48	-3.64	-4	1.24	-0.13	3.05	1.81	-4.65	0	2.17	0	0	0	0	0	0	3.74E-014	-5.95E-014	8.46E-014	47.13	39.02	36.91	-23.61	-18.38	48.4	-0.54	-20.32	-2.98	-3.04E-010	3.26E-009	-6.49E-010	-5.12E-010	5.60E-009	-1.13E-009	-3.04E-010	3.26E-009	-6.49E-010	7.73	5.47	0.42	-3.04E-010	3.26E-009	-6.49E-010	2.91	0.97	0.1	-3.04E-010	3.26E-009	-6.49E-010	10.28	0.73	0.03	-3.04E-010	3.26E-009	-6.49E-010	2.22	-0.73	-0.21	3.71E-014	-5.95E-014	8.44E-014	-79.27	-20.67	20.11	6.5	-2.27	-11.37	0.05	-6.46	0.91	-9.24E-010	-1.45E-010	-8.58E-010	-1.59E-009	-2.53E-010	-1.49E-009	-9.24E-010	-1.45E-010	-8.58E-010	-7.73	5.47	-0.42	-9.24E-010	-1.45E-010	-8.58E-010	-2.91	0.97	-0.1	-9.24E-010	-1.45E-010	-8.58E-010	-10.28	0.73	-0.03	-9.24E-010	-1.45E-010	-8.58E-010	-2.22	-0.73	0.21	-2.03E-016	0	-3.88E-019	8.58	20.46	6.05	0.09	5.41	0.79	-2.13	-12.05	-7.29	2.03E-016	0	3.88E-019	10.72	-43.56	-1.21	0.17	32.17	-0.88	4.02	-7.51	14.5
51.41	76.49	-206.49	-6.14	-10.26	-0.03	9.79	15.25	3.76	-3.57	-3.93	1.31	-0.25	2.87	1.83	-4	0	2.5	0	0	0	0	0	0	-2.45E-014	-3.88E-014	7.84E-014	47.57	39.05	36.39	-23.62	-18.4	48.42	-0.54	-20.35	-2.99	-2.55E-010	3.20E-009	-7.17E-010	-4.26E-010	5.48E-009	-1.25E-009	-2.55E-010	3.20E-009	-7.17E-010	7.73	5.47	0.42	-2.55E-010	3.20E-009	-7.17E-010	2.91	0.97	0.1	-2.55E-010	3.20E-009	-7.17E-010	10.28	0.73	0.03	-2.55E-010	3.20E-009	-7.17E-010	2.22	-0.73	-0.21	-2.47E-014	-3.88E-014	7.82E-014	-79.42	-20.25	20.44	6.58	-2.31	-11.53	0.06	-6.83	0.97	-3.41E-010	-5.65E-010	-8.78E-010	-5.87E-010	-9.79E-010	-1.52E-009	-3.41E-010	-5.65E-010	-8.78E-010	-7.73	5.47	-0.42	-3.41E-010	-5.65E-010	-8.78E-010	-2.91	0.97	-0.1	-3.41E-010	-5.65E-010	-8.78E-010	-10.28	0.73	-0.03	-3.41E-010	-5.65E-010	-8.78E-010	-2.22	-0.73	0.21	-2.03E-016	0	-3.88E-019	8.09	21.06	6.49	0.09	5.56	0.81	-2.03	-11.11	-7.35	2.03E-016	0	3.88E-019	10.77	-43.41	-0.76	0.18	33.1	-0.91	4.07	-7.62	14.47
